<?xml version="1.0"?>
<svg xmlns="http://www.w3.org/2000/svg" id="outline" viewBox="0 0 512 512" width="512" height="512"><path d="M256,160a8.00917,8.00917,0,0,1-8,8h-8v16h8a24.0275,24.0275,0,0,0,24-24v-8H256Z"/><path d="M112,410.44629A37.59644,37.59644,0,0,0,149.55371,448H168v40a8.00039,8.00039,0,0,0,8,8H376a8.00039,8.00039,0,0,0,8-8V367.5459l12.65039-9.03613a8.00009,8.00009,0,0,0,3.0127-8.8086l-24-80a8.002,8.002,0,0,0-3.77832-4.69433L352,253.95947V112a96,96,0,0,0-192,0V253.95947l-19.88477,11.04737a8.002,8.002,0,0,0-3.77832,4.69433l-24,80a8.00009,8.00009,0,0,0,3.0127,8.8086l4.27856,3.05615-7.11743,42.70654A37.71928,37.71928,0,0,0,112,410.44629ZM184,448h24a7.99934,7.99934,0,0,0,3.57812-.84473l12.61255-6.30615L239.4165,480H184Zm150.96826-70.624,22.34717,50.28125-104.78711,41.915L238.56323,433.6626l85.01489-42.50733a8.00021,8.00021,0,0,0,2.82227-2.35547ZM269.54,480,328,456.616V480ZM344,480V450.21606l24-9.60009V480Zm24-67.69775-11.24316-25.29688L368,378.97437Zm14.69238-63.48584-32.56884,23.26391-4.16114-9.363,4.438-5.91749a7.99979,7.99979,0,0,0,1.18945-7.33007l-8-24a7.99567,7.99567,0,0,0-9.15918-5.31446L328,321.44141V258.92969l33.27148,18.48437ZM264,275.31445l33.39062-33.39062L312,250.04053v36.26172l-.68945-1.55127a8.00108,8.00108,0,0,0-10.46192-4.1045L264,296.43872ZM256,208a48.05375,48.05375,0,0,1-48-48V136a24.0275,24.0275,0,0,1,24-24h4.22266a65.47786,65.47786,0,0,0,51.55566-24.82031L304,114.21582V160A48.05375,48.05375,0,0,1,256,208Zm0,16a63.68208,63.68208,0,0,0,22.35962-4.03857l7.346,11.01879L256,260.68652l-29.70557-29.7063,7.34595-11.01879A63.68208,63.68208,0,0,0,256,224Zm-41.39062,17.92383L248,275.31445V303.2959l-16.64966,7.1355A32.02228,32.02228,0,0,0,208,273.0127V248a7.99541,7.99541,0,0,0-.32031-2.22607ZM200,304a8.00039,8.00039,0,0,0,8-8v-5.835a16,16,0,1,1-16,0V296A8.00039,8.00039,0,0,0,200,304Zm15.33105,69.92139-13.07226-33.61377,97.63672-41.84473,11.67285,26.26489-17.1377,3.42749a7.99962,7.99962,0,0,0-4.83105,3.04493l-22.29492,29.72753ZM176,112a80,80,0,0,1,160,0V245.07031l-34.41895-19.12207-8.99072-13.48535A63.95848,63.95848,0,0,0,320,160V112a8.00777,8.00777,0,0,0-1.13965-4.11621l-24-40a8.00049,8.00049,0,0,0-14.01562.53809A49.61758,49.61758,0,0,1,236.22266,96H232a40.04584,40.04584,0,0,0-40,40v24a63.95848,63.95848,0,0,0,27.40967,52.46289L210.419,225.94824,176,245.07031ZM150.72852,277.41406,192,254.48486V273.0127a31.99507,31.99507,0,0,0-7.05469,59.21459,7.98305,7.98305,0,0,0-.40136,6.67212l15.14111,38.93335L184,381.75415V360H168v16.4541l-38.69238-27.63769Zm20.62109,121.09571a7.9646,7.9646,0,0,0,6.58984,1.24755l.001.00342,96-24a8.00083,8.00083,0,0,0,4.46-2.96094l22.166-29.55468,30.07714-6.01563,4.44141,13.32422L314.7334,377.68945,206.11133,432H149.55371A21.5504,21.5504,0,0,1,128.294,406.90234l5.83032-34.98217Z"/><circle cx="232" cy="136" r="8"/><circle cx="280" cy="136" r="8"/></svg>

