<svg height="511pt" viewBox="0 -22 511.99899 511" width="511pt" xmlns="http://www.w3.org/2000/svg"><path d="m295.683594 423.546875c-75.628906 36.671875-152.03125 23.257813-190.84375 11.996094-5.316406-1.542969-10.871094 1.515625-12.414063 6.828125-1.539062 5.3125 1.519531 10.871094 6.832031 12.410156 20.246094 5.875 52.0625 12.871094 88.753907 12.871094h.1875c41.488281-.027344 80.59375-8.800782 116.226562-26.082032 4.976563-2.414062 7.054688-8.40625 4.640625-13.382812-2.414062-4.976562-8.402344-7.054688-13.382812-4.640625zm0 0"/><path d="m62.664062 420.804688-.503906.117187c-5.386718 1.269531-8.722656 6.664063-7.453125 12.046875 1.085938 4.613281 5.199219 7.722656 9.742188 7.722656.757812 0 1.53125-.085937 2.304687-.269531l.503906-.117187c5.386719-1.269532 8.722657-6.660157 7.453126-12.046876-1.265626-5.382812-6.664063-8.71875-12.046876-7.453124zm0 0"/><path d="m349.808594 80.667969-.507813.117187c-5.386719 1.261719-8.726562 6.65625-7.464843 12.039063 1.082031 4.617187 5.199218 7.734375 9.742187 7.734375.757813 0 1.527344-.085938 2.296875-.269532l.507812-.117187c5.386719-1.265625 8.726563-6.65625 7.464844-12.042969-1.265625-5.382812-6.65625-8.726562-12.039062-7.460937zm0 0"/><path d="m501.984375.5h-60.976563c-5.53125 0-10.015624 4.484375-10.015624 10.015625v14.574219l-83.089844 11.402344c-3.722656.511718-7.507813.578124-11.246094.195312l-107.714844-11.007812c-20.820312-2.128907-41.765625 5.726562-56.050781 21.007812l-54.792969 58.617188c-11.703125 12.519531-18.148437 28.855468-18.148437 45.992187v81.984375c0 28.027344 7.023437 55.878906 20.308593 80.554688l4.1875 7.773437c7.121094 13.226563 20.636719 21.441406 35.269532 21.441406 6.023437 0 11.386718-1.402343 15.835937-4.09375v10.511719c-33.140625-.570312-62.546875 5.273438-86.121093 12.660156l-19.742188-85.5625c5.734375-3.335937 10.402344-8.320312 13.371094-14.472656 4.46875-9.257812 4.492187-19.886719.066406-29.167969l-7.996094-16.765625c-.855468-1.792968-1.316406-3.789062-1.332031-5.777344l-.160156-18.574218c-.085938-10.28125-4.765625-19.828125-12.835938-26.191406-8.070312-6.367188-18.441406-8.691407-28.460937-6.378907-10.175782 2.34375-18.542969 9.117188-22.964844 18.578125-4.421875 9.460938-4.246094 20.226563.480469 29.539063l7.925781 15.613281c1.003906 1.980469 1.515625 4.199219 1.480469 6.417969l-.285157 17.507812c-.167968 10.441407 4.390626 20.195313 12.507813 26.765625 5.433594 4.394532 11.933594 6.925782 18.683594 7.417969l20.246093 87.75c-40.804687 15.957031-65.617187 35.886719-66.710937 36.777344-4.296875 3.484375-4.949219 9.792969-1.460937 14.089843 3.488281 4.292969 9.796874 4.945313 14.089843 1.457032.238281-.191406 22.3125-17.921875 58.636719-32.578125l2.445312 10.59375c1.066407 4.632812 5.191407 7.769531 9.75 7.769531.746094 0 1.503907-.085938 2.261719-.257812 5.390625-1.246094 8.75-6.625 7.507813-12.015626l-2.988282-12.960937c21.527344-6.910156 43.359376-10.957031 65.027344-12.046875 5.535156-.277344 11.0625-.351562 16.578125-.242188v22.703126c0 5.53125 4.484375 10.015624 10.015625 10.015624 5.535156 0 10.019532-4.484374 10.019532-10.015624v-21.445313c18.601562 1.957031 37.011718 6.113281 55.03125 12.476563 2.882812 1.015624 5.75 2.011718 8.609374 2.992187l-3.109374 19.234375c-.882813 5.460938 2.828124 10.601562 8.289062 11.488281.542969.085938 1.082031.128907 1.609375.128907 4.828125 0 9.082031-3.5 9.878906-8.421876l2.59375-16.046874c74.003907 23.699218 141.425781 35.273437 205.261719 35.273437.757812 0 1.519531-.003906 2.277344-.007813 4.976562-.019531 10.027344-.082031 15.003906-.179687 5.53125-.105469 9.925781-4.679687 9.816406-10.210937-.105468-5.527344-4.675781-9.933594-10.210937-9.816407-4.875.09375-9.820313.152344-14.695313.175781-63.195312.304688-130.230468-11.269531-204.222656-35.230468l11.265625-69.6875c7.394531-.535156 14.445313-3.5 20.09375-8.597656 7.628906-6.886719 11.664063-16.722657 11.066406-26.984376l-1.078125-18.546874c-.113281-1.980469.210938-4.003907.945313-5.851563l.222656-.554687c37.609375-6.101563 72.734375-17.480469 106.753906-34.628907v.957031c0 5.53125 4.484375 10.015626 10.019531 10.015626h60.972657c5.535156 0 10.019531-4.484376 10.019531-10.015626v-198.117187c0-5.53125-4.484375-10.015625-10.015625-10.015625zm-462.976563 246.71875.285157-17.507812c.089843-5.46875-1.171875-10.933594-3.648438-15.8125l-7.925781-15.613282c-1.917969-3.777344-1.988281-8.148437-.195312-11.988281 1.792968-3.839844 5.191406-6.589844 9.320312-7.539063 1.03125-.238281 2.070312-.355468 3.101562-.355468 3.039063 0 6.003907 1.015625 8.449219 2.941406 3.277344 2.585938 5.175781 6.460938 5.210938 10.632812l.15625 18.574219c.042969 4.894531 1.175781 9.8125 3.285156 14.230469l7.996094 16.769531c1.796875 3.765625 1.785156 8.082031-.027344 11.839844-1.8125 3.753906-5.183594 6.449219-9.246094 7.386719h-.003906c-4.128906.953125-8.386719-.03125-11.679687-2.695313-3.296876-2.664062-5.148438-6.625-5.078126-10.863281zm137.492188-45.023438-4.214844-16.996093c-1.019531-4.113281-.105468-8.386719 2.503906-11.722657 2.613282-3.339843 6.539063-5.253906 10.777344-5.253906 4.171875 0 8.0625 1.867188 10.675782 5.121094 2.609374 3.25 3.589843 7.453125 2.6875 11.527344l-4.023438 18.136718c-1.0625 4.777344-1.0625 9.828126 0 14.605469l.179688.824219-13.519532 10.199219c-3.03125 2.285156-6.242187 4.710937-9.390625 7.378906.039063-.199219.058594-.398437.109375-.597656l4.214844-16.996094c1.316406-5.304687 1.316406-10.917969 0-16.226563zm80.785156 162.0625c-21.386718-7.550781-42.074218-11.792968-61.703125-13.664062v-26.964844c.207031.003906.417969.019532.625.019532 1.417969 0 2.832031-.082032 4.230469-.25 9.421875-1.117188 17.328125-5.628907 23.816406-9.890626 10.082032-6.625 19.394532-14.222656 28.402344-21.570312 2.695312-2.199219 5.4375-4.433594 8.199219-6.640625.035156.0625.0625.128906.097656.191406 2.988281 5.421875 7.308594 9.796875 12.46875 12.820313l-10.949219 67.753906c-1.726562-.597656-3.453125-1.191406-5.1875-1.804688zm45.785156-114.382812 1.078126 18.546875c.242187 4.164063-1.398438 8.15625-4.492188 10.953125-3.097656 2.792969-7.234375 4.015625-11.355469 3.347656-4.183593-.675781-7.753906-3.191406-9.800781-6.90625-2.046875-3.710937-2.265625-8.074218-.601562-11.972656l6.871093-16.105469c2.148438-5.03125 3.042969-10.570312 2.589844-16.019531l-1.449219-17.453125c-.347656-4.222656 1.234375-8.296875 4.34375-11.171875 3.109375-2.878906 7.289063-4.144531 11.480469-3.464844 4.117187.664063 7.660156 3.128906 9.71875 6.753906 2.058594 3.628907 2.355469 7.933594.8125 11.8125l-6.867187 17.261719c-1.808594 4.546875-2.613282 9.53125-2.328126 14.417969zm44.796876-32.746094 41.453124-32.625c4.347657-3.421875 5.097657-9.71875 1.679688-14.066406-3.421875-4.34375-9.71875-5.097656-14.066406-1.675781l-44.902344 35.335937c-.730469-2.617187-1.777344-5.167968-3.152344-7.597656-5.070312-8.9375-13.800781-15.007812-23.949218-16.648438-10.308594-1.667968-20.617188 1.445313-28.28125 8.539063-7.664063 7.089844-11.566407 17.128906-10.703126 27.535156l1.449219 17.449219c.183594 2.210938-.179687 4.460938-1.050781 6.503906l-6.871094 16.105469c-.921875 2.160156-1.597656 4.378906-2.050781 6.625-5.988281 4.492187-11.800781 9.214844-17.429687 13.808594-9.011719 7.347656-17.519532 14.292969-26.738282 20.347656-4.539062 2.980469-9.890625 6.113281-15.175781 6.742187-2.816406.332032-5.777344-.0625-8.648437-1.082031-.039063-.015625-.078126-.027343-.117188-.046875-3.644531-1.316406-7.140625-3.644531-10.003906-6.789062-5.265625-5.777344-8.109375-13.882813-7.613282-21.679688.796876-12.480468 8.820313-19.386718 21.933594-29.277344l69.71875-52.582031c19.90625-15.015625 31.792969-38.867187 31.792969-63.800781v-15.214844c0-5.53125-4.484375-10.015625-10.019531-10.015625-5.53125 0-10.015625 4.484375-10.015625 10.015625v15.214844c0 18.683594-8.90625 36.554688-23.820313 47.804688l-35.882812 27.066406 3.082031-13.910156c2.226563-10.035157-.1875-20.386719-6.617187-28.40625-.398438-.492188-.808594-.972657-1.226563-1.441407 11.152344-8.816406 24.773437-14.550781 38.710937-16.082031 5.496094-.601562 9.464844-5.550781 8.863282-11.050781-.605469-5.5-5.550782-9.457031-11.054688-8.863281-20.246094 2.226562-39.941406 11.425781-54.980468 25.484374-2.15625-.425781-4.367188-.660156-6.613282-.660156-10.441406 0-20.121094 4.71875-26.554687 12.941406-6.4375 8.226563-8.683594 18.757813-6.171875 28.894532l4.214844 16.992187c.53125 2.15625.53125 4.433594 0 6.585938l-4.214844 17c-2.089844 8.425781-.796875 17.234375 3.40625 24.703125-2.453125 4.996094-4.117188 10.699218-4.542969 17.324218-.816406 12.824219 3.492187 25.617188 11.84375 35.351563v14.554687c-.941406.28125-2.1875.480469-3.832031.480469-7.253906 0-14.011719-4.179687-17.632813-10.90625l-4.1875-7.773437c-11.71875-21.765625-17.914062-46.335938-17.914062-71.054688v-81.984375c0-12.042969 4.53125-23.515625 12.753906-32.3125l54.792969-58.617187c10.035156-10.734375 24.753906-16.253906 39.375-14.757813l107.71875 11.007813c5.320312.542968 10.703125.449218 16.003906-.277344l80.367188-11.03125v22.675781l-40.933594 6.542969c-5.464844.875-9.183594 6.011719-8.308594 11.472656.785156 4.925782 5.042969 8.4375 9.878906 8.4375.523438 0 1.054688-.042968 1.589844-.128906l37.773438-6.035156v96.796875c-26.8125 14.445312-54.261719 25.050781-83.125 32.054687zm144.097656-18.511718h-40.941406v-178.085938h40.941406zm0 0"/></svg>